<svg xmlns="http://www.w3.org/2000/svg" width="400" height="400" viewBox="0 0 200 200"><path fill="#0f1117" d="M0 0h200v200H0z"/><ellipse cx="100" cy="160" fill-opacity=".3" rx="40" ry="10"/><path stroke="#e2e8f0" stroke-linecap="round" stroke-width="6" d="M60 90 40 70m100 20 20-20M50 110H30m120 0h20M60 130l-15 20m95-20 15 20"/><path fill="#f97316" d="m100 60 43.3 25v50L100 160l-43.3-25V85Z"/><path fill="#fff" fill-opacity=".1" d="m100 70 30 17v33l-30-20Z"/><path fill="none" stroke="#f97316" stroke-linecap="round" stroke-width="6" d="M40 70Q30 50 50 40m110 30q10-20-10-30"/><circle cx="85" cy="105" r="5" fill="#0f1117"/><circle cx="115" cy="105" r="5" fill="#0f1117"/><path fill="none" stroke="#0f1117" stroke-linecap="round" stroke-width="3" d="M85 135q15 10 30 0" opacity=".5"/></svg>